<?xml version="1.0" encoding="UTF-8"?>
<svg version="1.1" xmlns="http://www.w3.org/2000/svg" width="437" height="84">
<path d="M0 0 C7 0 7 0 9.9921875 2.45703125 C10.97365717 3.557548 11.93382995 4.67732655 12.875 5.8125 C13.64481201 6.69349365 13.64481201 6.69349365 14.43017578 7.59228516 C15.97727648 9.37614279 17.49257904 11.18255279 19 13 C19.845625 14.01191406 20.69125 15.02382813 21.5625 16.06640625 C23.00930749 17.82359305 24.44595414 19.58925243 25.8671875 21.3671875 C28.51238024 24.63249868 31.26518123 27.80937811 34 31 C34.33 20.77 34.66 10.54 35 0 C37.64 0 40.28 0 43 0 C43.02527124 6.24795675 43.04283344 12.49590041 43.05493164 18.74389648 C43.05997298 20.87118014 43.06680591 22.99846031 43.07543945 25.12573242 C43.08751379 28.17627826 43.09323014 31.22677845 43.09765625 34.27734375 C43.10281754 35.23462875 43.10797882 36.19191376 43.11329651 37.1782074 C43.11337204 38.05904495 43.11344757 38.93988251 43.11352539 39.84741211 C43.115746 40.62684677 43.11796661 41.40628143 43.12025452 42.20933533 C43 44 43 44 42 45 C39.30078125 45.42578125 39.30078125 45.42578125 36 45 C33.76448827 43.10237938 32.05314415 41.39891967 30.1875 39.1875 C29.66905518 38.5994458 29.15061035 38.0113916 28.61645508 37.40551758 C24.71058773 32.94141138 20.92582334 28.36994587 17.23046875 23.73046875 C14.24563476 20.07653012 11.10689295 16.5507348 8 13 C7.67 23.56 7.34 34.12 7 45 C4.69 45 2.38 45 0 45 C0 30.15 0 15.3 0 0 Z " fill="#ff3d3d" transform="translate(160,20)"/>
<path d="M0 0 C6.991875 -0.0928125 6.991875 -0.0928125 14.125 -0.1875 C15.58437988 -0.21481201 17.04375977 -0.24212402 18.54736328 -0.27026367 C19.70993652 -0.27775635 20.87250977 -0.28524902 22.0703125 -0.29296875 C23.25383301 -0.3086792 24.43735352 -0.32438965 25.65673828 -0.34057617 C30.67133584 0.17025803 33.90399478 1.81512949 37.3125 5.5 C40.14112473 9.69055516 40.41496987 13.02036155 40 18 C37.98488085 23.51566899 34.9597933 25.88144504 30 29 C30.721875 29.98742187 31.44375 30.97484375 32.1875 31.9921875 C33.12524749 33.28627903 34.06273402 34.58055969 35 35.875 C35.47695313 36.52597656 35.95390625 37.17695312 36.4453125 37.84765625 C40 42.7734375 40 42.7734375 40 45 C36.7689999 45.5769643 35.09401588 45.87199768 32 45 C28.83446638 42.00815052 26.45034968 38.58587758 24 35 C23.42894531 34.27296875 22.85789062 33.5459375 22.26953125 32.796875 C21 31 21 31 21 29 C16.38 29 11.76 29 7 29 C7 34.28 7 39.56 7 45 C4.69 45 2.38 45 0 45 C0 30.15 0 15.3 0 0 Z M7 6 C7 11.28 7 16.56 7 22 C10.23057217 22.13523325 13.4554669 22.23421546 16.6875 22.3125 C17.59951172 22.35439453 18.51152344 22.39628906 19.45117188 22.43945312 C24.09892781 22.52395778 26.29015336 22.51761488 30.14453125 19.70703125 C32.34157555 17.04864042 32.34157555 17.04864042 32 13.375 C31.01143825 10.0386041 30.67015605 9.02384289 28 7 C25.68749164 6.49753325 25.68749164 6.49753325 23.11328125 6.48828125 C22.17548828 6.45283203 21.23769531 6.41738281 20.27148438 6.38085938 C19.29501953 6.35830078 18.31855469 6.33574219 17.3125 6.3125 C16.32443359 6.27833984 15.33636719 6.24417969 14.31835938 6.20898438 C11.87930601 6.12650431 9.43967061 6.06157567 7 6 Z " fill="#ff3d3d" transform="translate(238,20)"/>
<path d="M0 0 C0.66 0.33 1.32 0.66 2 1 C1.49396008 3.16874252 1.00016187 4.99967627 0 7 C-4.58760108 6.23539982 -4.58760108 6.23539982 -6.79296875 4.9765625 C-9.65029656 3.71225816 -11.94772362 3.73456121 -15.0625 3.75 C-16.62677734 3.74226563 -16.62677734 3.74226563 -18.22265625 3.734375 C-21.21128985 3.79927423 -21.21128985 3.79927423 -24 6 C-24.25030977 8.58380177 -24.25030977 8.58380177 -24 11 C-19.56448969 13.42310285 -15.41614378 14.74588568 -10.5 15.875 C-4.88847194 17.26048669 -0.86153074 18.57059709 3 23 C4.48006763 27.44020288 4.6453654 31.26558048 3 35.6875 C-0.92000279 40.22000322 -4.72590732 41.7517804 -10.54296875 42.38671875 C-19.61567202 42.65061885 -26.62996964 41.83709983 -33.5625 35.75 C-34.036875 35.1725 -34.51125 34.595 -35 34 C-34.01 32.68 -33.02 31.36 -32 30 C-29.43413514 30.49343555 -27.66945601 31.18888228 -25.375 32.5 C-20.43211483 34.69683785 -15.12596115 35.87171563 -9.80078125 34.38671875 C-7.68037943 33.51462937 -7.68037943 33.51462937 -5 32 C-5 30.02 -5 28.04 -5 26 C-9.87661625 24.30221508 -14.74672182 22.78306591 -19.75 21.5 C-24.79247935 20.13374163 -28.45437097 18.91871189 -31.8125 14.75 C-33.38686787 11.10409547 -33.61196879 8.94379885 -33 5 C-30.7903907 1.24138624 -28.19373264 -1.34628927 -24.375 -3.4375 C-15.30869328 -4.94855112 -8.07907063 -4.51051253 0 0 Z " fill="#ff3d3d" transform="translate(54,23)"/>
<path d="M0 0 C1.78125 2.140625 1.78125 2.140625 3 4 C2.01 5.32 1.02 6.64 0 8 C-5 6 -5 6 -7.33984375 4.953125 C-12.36044767 3.15425957 -18.08124273 3.02532474 -23.1640625 4.72265625 C-27.09414837 6.78804181 -29.07613489 9.08496254 -31 13 C-31.82534539 18.52460923 -31.7015139 23.46206568 -29.375 28.5625 C-24.94726033 33.10675914 -21.30786742 34.19579414 -15.0625 34.4375 C-11.0631296 34.36316226 -8.38475755 34.03159498 -5 31.875 C-2 30 -2 30 0.375 30.5 C2.31127592 32.28733162 2.47224255 33.4750428 3 36 C1.73168307 36.81642254 0.46024069 37.62799105 -0.8125 38.4375 C-1.87404297 39.11619141 -1.87404297 39.11619141 -2.95703125 39.80859375 C-9.20885085 43.45449237 -18.6003432 43.07092421 -25.51953125 41.38671875 C-31.52414149 38.69826407 -36.32206805 33.45063082 -39.17578125 27.58203125 C-41.01560048 21.81842694 -40.59236812 15.90181345 -38.8125 10.1875 C-34.9858866 3.45793849 -30.63374264 -1.25760537 -23.10546875 -3.5859375 C-15.03712848 -5.17266119 -7.09651592 -4.289685 0 0 Z " fill="#ff3d3d" transform="translate(417,23)"/>
<path d="M0 0 C3.09858803 -0.45033709 5.01544543 -0.71442358 8 0 C10.7054135 2.41000345 12.47763005 5.30963867 14.375 8.375 C15.40272531 9.94591511 16.43133171 11.51625425 17.4609375 13.0859375 C17.90228027 13.7876709 18.34362305 14.4894043 18.79833984 15.21240234 C20.00914534 17.13738129 20.00914534 17.13738129 22 19 C22.38857178 18.45996338 22.77714355 17.91992676 23.17749023 17.36352539 C24.92988133 14.929168 26.68367163 12.49582208 28.4375 10.0625 C29.04916016 9.21236328 29.66082031 8.36222656 30.29101562 7.48632812 C30.87431641 6.67744141 31.45761719 5.86855469 32.05859375 5.03515625 C32.59798584 4.2862915 33.13737793 3.53742676 33.69311523 2.76586914 C35 1 35 1 36 0 C38.67058851 -0.14115161 41.32432238 -0.04247107 44 0 C42.42281227 4.83361651 39.65644748 8.43678707 36.625 12.4375 C35.18419055 14.3579372 33.74730482 16.28034296 32.32641602 18.21557617 C31.14880147 19.79981779 29.92327048 21.34818925 28.69140625 22.890625 C26.41535731 27.0747704 26.36893576 30.62080709 26.3125 35.3125 C26.0903336 43.9096664 26.0903336 43.9096664 25 45 C22.66702567 45.04092937 20.33294775 45.04241723 18 45 C18.11794922 43.25589844 18.11794922 43.25589844 18.23828125 41.4765625 C18.6359636 27.73699891 14.21574157 20.22061125 5.53271484 9.86865234 C0 3.12328767 0 3.12328767 0 0 Z " fill="#ff3d3d" transform="translate(85,20)"/>
<path d="M0 0 C2.86503068 1.2843241 5.15427705 2.41598787 7 5 C7.64039015 9.1167938 7.14740698 10.75125073 5 14.375 C4.34 15.24125 3.68 16.1075 3 17 C3.33 17.66 3.66 18.32 4 19 C6.33075929 18.04134491 6.33075929 18.04134491 8 15 C8.66 14.34 9.32 13.68 10 13 C10.66 12.01 11.32 11.02 12 10 C12.495 10.99 12.495 10.99 13 12 C10.45426318 17.49879154 8.2294967 19.74322153 3 23 C3.721875 23.98742187 4.44375 24.97484375 5.1875 25.9921875 C6.12524749 27.28627903 7.06273402 28.58055969 8 29.875 C8.47695313 30.52597656 8.95390625 31.17695312 9.4453125 31.84765625 C13 36.7734375 13 36.7734375 13 39 C9.7689999 39.5769643 8.09401588 39.87199768 5 39 C1.83446638 36.00815052 -0.54965032 32.58587758 -3 29 C-3.85658203 27.90945312 -3.85658203 27.90945312 -4.73046875 26.796875 C-6 25 -6 25 -6 23 C-10.62 23 -15.24 23 -20 23 C-20 26.63 -20 30.26 -20 34 C-20.33 34 -20.66 34 -21 34 C-21.22142255 32.04310341 -21.4267568 30.08438048 -21.625 28.125 C-21.74101562 27.03445312 -21.85703125 25.94390625 -21.9765625 24.8203125 C-21.98429688 23.88960937 -21.99203125 22.95890625 -22 22 C-20 20 -20 20 -16.6640625 19.77734375 C-6.05583984 20.02957641 -6.05583984 20.02957641 -3.26171875 22.59765625 C-2.3125 24.5 -2.3125 24.5 -1 28 C1.11341126 29.03525132 1.11341126 29.03525132 3 29 C1.54744301 25.17053157 -0.42895561 23.87949705 -4 22 C-3.67 21.01 -3.34 20.02 -3 19 C-8.61 18.67 -14.22 18.34 -20 18 C-20 17.34 -20 16.68 -20 16 C-19.41508789 15.9906543 -18.83017578 15.98130859 -18.22753906 15.97167969 C-15.5675142 15.91786721 -12.90922778 15.83424551 -10.25 15.75 C-8.86941406 15.72873047 -8.86941406 15.72873047 -7.4609375 15.70703125 C-2.07323186 15.55077415 -2.07323186 15.55077415 2.64453125 13.171875 C4.31651347 10.93167815 4.31651347 10.93167815 3.9375 7.5 C3.05845835 4.21824451 2.26817785 2.4654107 0 0 Z " fill="#ff3d3d" transform="translate(265,26)"/>
<path d="M0 0 C11.88 0 23.76 0 36 0 C36 2.31 36 4.62 36 7 C24.12 7 12.24 7 0 7 C0 4.69 0 2.38 0 0 Z " fill="#ff3d3d" transform="translate(312,58)"/>
<path d="M0 0 C1.43352212 0.00015908 2.86704998 0.00585132 4.30053711 0.01586914 C5.43041298 0.01799156 5.43041298 0.01799156 6.58311462 0.02015686 C8.99807646 0.02577163 11.41294687 0.03832656 13.82788086 0.05102539 C15.46134307 0.05603849 17.09480672 0.06060173 18.72827148 0.06469727 C22.74067671 0.07574585 26.75301326 0.09302033 30.76538086 0.11352539 C30.76538086 2.42352539 30.76538086 4.73352539 30.76538086 7.11352539 C19.54538086 7.11352539 8.32538086 7.11352539 -3.23461914 7.11352539 C-3.56461914 5.13352539 -3.89461914 3.15352539 -4.23461914 1.11352539 C-3.23461914 0.11352539 -3.23461914 0.11352539 0 0 Z " fill="#ff3d3d" transform="translate(315.234619140625,37.886474609375)"/>
<path d="M0 0 C11.88 0 23.76 0 36 0 C36 1.98 36 3.96 36 6 C24.12 6 12.24 6 0 6 C0 4.02 0 2.04 0 0 Z " fill="#ff3d3d" transform="translate(312,20)"/>
<path d="M0 0 C0.33 0 0.66 0 1 0 C1 4.95 1 9.9 1 15 C7.93 15.33 14.86 15.66 22 16 C21.34 16.99 20.68 17.98 20 19 C21.18398456 20.2350189 21.18398456 20.2350189 23.5625 21.875 C24.366875 22.57625 25.17125 23.2775 26 24 C26 24.99 26 25.98 26 27 C23.6875 26.8125 23.6875 26.8125 21 26 C18 21.96551724 18 21.96551724 18 19 C15.52076199 18.97314905 13.0418116 18.95323453 10.5625 18.9375 C9.50192383 18.92493164 9.50192383 18.92493164 8.41992188 18.91210938 C6.61306441 18.90346412 4.80612397 18.94779989 3 19 C2.67 19.33 2.34 19.66 2 20 C2.18197966 23.34387621 2.52178128 26.66298577 2.84375 29.99609375 C3 33 3 33 2 35 C0.68 35 -0.64 35 -2 35 C-2.04937279 30.33692986 -2.08570627 25.67401127 -2.10986328 21.01074219 C-2.11993188 19.42380117 -2.13358767 17.83687875 -2.15087891 16.25 C-2.17509001 13.97130753 -2.18647422 11.69285994 -2.1953125 9.4140625 C-2.20563507 8.70255035 -2.21595764 7.99103821 -2.22659302 7.25796509 C-2.22699422 5.50368335 -2.12202209 3.75003291 -2 2 C-1.34 1.34 -0.68 0.68 0 0 Z " fill="#ff3d3d" transform="translate(242,28)"/>
<path d="M0 0 C0.66 0.33 1.32 0.66 2 1 C2 14.86 2 28.72 2 43 C0.35 42.34 -1.3 41.68 -3 41 C-3.7425 40.731875 -4.485 40.46375 -5.25 40.1875 C-7 39 -7 39 -7.875 36.5 C-7.936875 35.2625 -7.936875 35.2625 -8 34 C-7.34 33.34 -6.68 32.68 -6 32 C-5.01 32.33 -4.02 32.66 -3 33 C-2.67 22.44 -2.34 11.88 -2 1 C-1.34 0.67 -0.68 0.34 0 0 Z " fill="#ff3d3d" transform="translate(199,20)"/>
<path d="M0 0 C1.27460466 2.45116281 2.32367462 4.84771925 3.3125 7.4375 C5.53497142 12.1293841 7.57425013 15.07360166 12.546875 16.97265625 C15.01893023 17.72335099 17.48752215 18.39993247 20 19 C20.33 18.34 20.66 17.68 21 17 C20.67 16.67 20.34 16.34 20 16 C20 15.67 20 15.34 20 15 C20.64066406 14.90203125 21.28132813 14.8040625 21.94140625 14.703125 C26.37392846 13.93684694 30.06117005 13.20946332 33.875 10.75 C37 9 37 9 39.375 9.5 C41.31127592 11.28733162 41.47224255 12.4750428 42 15 C40.73168307 15.81642254 39.46024069 16.62799105 38.1875 17.4375 C37.12595703 18.11619141 37.12595703 18.11619141 36.04296875 18.80859375 C29.79114915 22.45449237 20.3996568 22.07092421 13.48046875 20.38671875 C7.72256261 17.80872133 2.81096646 12.62193292 0 7 C-0.04022391 4.6670134 -0.04320247 2.33293334 0 0 Z " fill="#ff3d3d" transform="translate(378,44)"/>
<path d="M0 0 C2.05078125 0.03255208 4.1015625 0.06510417 6.15234375 0.09765625 C4.68104002 4.45497885 2.3215376 7.81699759 -0.47265625 11.41015625 C-0.89289063 11.95994141 -1.313125 12.50972656 -1.74609375 13.07617188 C-2.77485664 14.42057793 -3.81055715 15.75967038 -4.84765625 17.09765625 C-5.17765625 15.77765625 -5.50765625 14.45765625 -5.84765625 13.09765625 C-6.83765625 13.09765625 -7.82765625 13.09765625 -8.84765625 13.09765625 C-10.76273403 15.090408 -10.76273403 15.090408 -12.53515625 17.59765625 C-13.15777344 18.43296875 -13.78039062 19.26828125 -14.421875 20.12890625 C-14.89238281 20.77859375 -15.36289063 21.42828125 -15.84765625 22.09765625 C-20.72265625 17.47265625 -20.72265625 17.47265625 -21.84765625 14.09765625 C-21.18765625 14.09765625 -20.52765625 14.09765625 -19.84765625 14.09765625 C-18.46533182 15.72392029 -17.1282811 17.39015645 -15.84765625 19.09765625 C-15.45908447 18.55761963 -15.0705127 18.01758301 -14.67016602 17.46118164 C-12.91777492 15.02682425 -11.16398462 12.59347833 -9.41015625 10.16015625 C-8.79849609 9.31001953 -8.18683594 8.45988281 -7.55664062 7.58398438 C-6.97333984 6.77509766 -6.39003906 5.96621094 -5.7890625 5.1328125 C-5.24967041 4.38394775 -4.71027832 3.63508301 -4.15454102 2.86352539 C-2.11815705 0.11195333 -2.11815705 0.11195333 0 0 Z " fill="#ff3d3d" transform="translate(122.84765625,19.90234375)"/>
<path d="M0 0 C8.58 0 17.16 0 26 0 C26 0.66 26 1.32 26 2 C18.41 2 10.82 2 3 2 C3.01160156 4.70832031 3.02320313 7.41664062 3.03515625 10.20703125 C3.04295355 12.82820519 3.04902649 15.44937784 3.05493164 18.07055664 C3.0599624 19.89315366 3.06678769 21.71574665 3.07543945 23.53833008 C3.08755997 26.15707394 3.09324086 28.77576447 3.09765625 31.39453125 C3.10281754 32.21025101 3.10797882 33.02597076 3.11329651 33.8664093 C3.1136246 37.17013929 3.05225621 39.84323138 2 43 C3.32 43 4.64 43 6 43 C6.33 42.34 6.66 41.68 7 41 C7 42.32 7 43.64 7 45 C4.69 45 2.38 45 0 45 C0 30.15 0 15.3 0 0 Z " fill="#ff3d3d" transform="translate(238,20)"/>
<path d="M0 0 C0.99 0 1.98 0 3 0 C3.02527124 6.24795675 3.04283344 12.49590041 3.05493164 18.74389648 C3.05997298 20.87118014 3.06680591 22.99846031 3.07543945 25.12573242 C3.08751379 28.17627826 3.09323014 31.22677845 3.09765625 34.27734375 C3.10281754 35.23462875 3.10797882 36.19191376 3.11329651 37.1782074 C3.11337204 38.05904495 3.11344757 38.93988251 3.11352539 39.84741211 C3.115746 40.62684677 3.11796661 41.40628143 3.12025452 42.20933533 C3 44 3 44 2 45 C-0.6875 45.4375 -0.6875 45.4375 -4 45 C-6.3322363 43.19422788 -8.04131963 41.23849185 -10 39 C-9.67 38.34 -9.34 37.68 -9 37 C-8.01 37.66 -7.02 38.32 -6 39 C-5.13375 39.165 -4.2675 39.33 -3.375 39.5 C-2.59125 39.665 -1.8075 39.83 -1 40 C-0.67 40.66 -0.34 41.32 0 42 C0 28.14 0 14.28 0 0 Z " fill="#ff3d3d" transform="translate(200,20)"/>
<path d="M0 0 C9.57 0 19.14 0 29 0 C29 1.32 29 2.64 29 4 C19.1 4 9.2 4 -1 4 C-0.67 2.68 -0.34 1.36 0 0 Z " fill="#ff3d3d" transform="translate(314,40)"/>
<path d="M0 0 C0 0.66 0 1.32 0 2 C0.66 2 1.32 2 2 2 C3.61089244 3.68649389 5.14123731 5.45064334 6.625 7.25 C7.44226563 8.22453125 8.25953125 9.1990625 9.1015625 10.203125 C11 13 11 13 11 17 C10.01 17 9.02 17 8 17 C6.73178385 15.50415531 5.46772412 14.00347057 4.26171875 12.45703125 C2.7172327 10.67346067 1.14756222 9.9306103 -1 9 C-2.75 7.375 -2.75 7.375 -4 6 C-4.99 6.33 -5.98 6.66 -7 7 C-7 5.02 -7 3.04 -7 1 C-4.53721199 -0.231394 -2.7204945 -0.07159196 0 0 Z " fill="#ff3d3d" transform="translate(169,24)"/>
<path d="M0 0 C11.55 0 23.1 0 35 0 C34.67 0.66 34.34 1.32 34 2 C23.11 1.67 12.22 1.34 1 1 C1 2.32 1 3.64 1 5 C12.22 4.67 23.44 4.34 35 4 C35.495 5.485 35.495 5.485 36 7 C24.12 7 12.24 7 0 7 C0 4.69 0 2.38 0 0 Z " fill="#ff3d3d" transform="translate(312,58)"/>
<path d="M0 0 C1.32 0.33 2.64 0.66 4 1 C4.32160804 9.20100503 4.32160804 9.20100503 2 13 C-2.63175144 15.90879571 -6.53167066 16.38942814 -11.875 16.1875 C-12.56335937 16.17396484 -13.25171875 16.16042969 -13.9609375 16.14648438 C-15.64097001 16.1114837 -17.3205935 16.05768954 -19 16 C-16.17887224 12.85981612 -14.18579533 12.52322442 -10 12 C-9.01 11.67 -8.02 11.34 -7 11 C-6.319375 10.855625 -5.63875 10.71125 -4.9375 10.5625 C-2.78505328 10.10633245 -2.78505328 10.10633245 -1 8 C-0.95834237 6.00043389 -0.95834237 3.99956611 -1 2 C-0.67 1.34 -0.34 0.68 0 0 Z " fill="#ff3d3d" transform="translate(52,47)"/>
<path d="M0 0 C0.99 0.33 1.98 0.66 3 1 C3.19652332 5.43714898 3.38067922 9.87472615 3.5625 14.3125 C3.61857422 15.57513672 3.67464844 16.83777344 3.73242188 18.13867188 C3.78076172 19.34716797 3.82910156 20.55566406 3.87890625 21.80078125 C3.9260376 22.91622314 3.97316895 24.03166504 4.02172852 25.1809082 C4 28 4 28 3 31 C2.01 31 1.02 31 0 31 C-0.97960463 20.51069502 -0.89571109 10.48670989 0 0 Z " fill="#ff3d3d" transform="translate(162,32)"/>
<path d="M0 0 C6.15234375 0.5859375 6.15234375 0.5859375 8 1 C8.33 1.66 8.66 2.32 9 3 C10.97960553 3.57546672 12.98532794 4.06285417 15 4.5 C17.01467206 4.93714583 19.02039447 5.42453328 21 6 C21.33 6.66 21.66 7.32 22 8 C18.91716557 8.14554346 15.83521561 8.23413821 12.75 8.3125 C11.87730469 8.35439453 11.00460938 8.39628906 10.10546875 8.43945312 C3.6447578 8.56274914 3.6447578 8.56274914 0.328125 5.66796875 C-1 3 -1 3 0 0 Z " fill="#ff3d3d" transform="translate(28,36)"/>
<path d="M0 0 C2 2 2 2 3 5 C3.66 4.67 4.32 4.34 5 4 C5.3125 6.6875 5.3125 6.6875 5 10 C2.75 12.625 2.75 12.625 0 15 C-1.1446875 16.1446875 -1.1446875 16.1446875 -2.3125 17.3125 C-2.869375 17.869375 -3.42625 18.42625 -4 19 C-4.66 18.67 -5.32 18.34 -6 18 C-4.87548273 15.0280615 -3.77706209 12.66559313 -2 10 C-1.83333333 7 -1.83333333 7 -2 4 C-2 3.01 -2 2.02 -2 1 C-1.34 0.67 -0.68 0.34 0 0 Z " fill="#ff3d3d" transform="translate(273,27)"/>
<path d="M0 0 C2.93804996 -0.08086376 5.87388075 -0.1404283 8.8125 -0.1875 C9.64587891 -0.21263672 10.47925781 -0.23777344 11.33789062 -0.26367188 C12.54155273 -0.27817383 12.54155273 -0.27817383 13.76953125 -0.29296875 C14.87711792 -0.31653442 14.87711792 -0.31653442 16.00708008 -0.34057617 C18.52230522 0.08925833 19.39441516 1.07463062 21 3 C20.67 3.66 20.34 4.32 20 5 C19.34 4.67 18.68 4.34 18 4 C18.12375 5.85625 18.12375 5.85625 18.25 7.75 C18.2737948 11.10506698 18.19641677 11.75447904 16 14.5 C15.34 14.995 14.68 15.49 14 16 C13.01 15.67 12.02 15.34 11 15 C11.66 14.62875 12.32 14.2575 13 13.875 C15.35303045 12.09105222 15.35303045 12.09105222 15.25 8.8125 C15.12625 7.4203125 15.12625 7.4203125 15 6 C14.41992188 5.80664062 13.83984375 5.61328125 13.2421875 5.4140625 C8.828125 3.94270833 4.4140625 2.47135417 0 1 C0 0.67 0 0.34 0 0 Z " fill="#ff3d3d" transform="translate(34,43)"/>
<path d="M0 0 C1.32 0.33 2.64 0.66 4 1 C3.030625 1.61875 2.06125 2.2375 1.0625 2.875 C-2.02835362 4.65678846 -2.02835362 4.65678846 -3 7 C-3.22467831 8.53668865 -3.40796805 10.07968054 -3.5625 11.625 C-3.64628906 12.44226562 -3.73007812 13.25953125 -3.81640625 14.1015625 C-3.87699219 14.72804688 -3.93757813 15.35453125 -4 16 C-2.35 15.67 -0.7 15.34 1 15 C1 16.65 1 18.3 1 20 C2.65 20.33 4.3 20.66 6 21 C4.3125 21.6875 4.3125 21.6875 2 22 C-2.11748305 20.19232451 -4.21997922 18.12215338 -6 14 C-6.60469341 10.37183954 -6.74588082 8.10909235 -4.65234375 4.99609375 C-3.16326375 3.25355332 -1.63728788 1.60317771 0 0 Z M3 5 C3 6.8334517 2.98332198 8.66712098 2.9375 10.5 C2.8813693 13.13147344 2.8813693 13.13147344 4 16 C3.01 15.67 2.02 15.34 1 15 C0.3125 11.6875 0.3125 11.6875 0 8 C1.4375 6.0625 1.4375 6.0625 3 5 Z " fill="#ff3d3d" transform="translate(27,21)"/>
<path d="M0 0 C3.63 0 7.26 0 11 0 C11 0.66 11 1.32 11 2 C11.62648438 2.18175781 12.25296875 2.36351562 12.8984375 2.55078125 C13.71570313 2.80214844 14.53296875 3.05351562 15.375 3.3125 C16.18710937 3.55613281 16.99921875 3.79976562 17.8359375 4.05078125 C20 5 20 5 22 8 C21.01 8.66 20.02 9.32 19 10 C17.88625 9.38125 16.7725 8.7625 15.625 8.125 C11.5004978 6.02954629 7.55780944 5.17353485 3.00390625 4.4921875 C2.34261719 4.32976563 1.68132812 4.16734375 1 4 C0.67 3.34 0.34 2.68 0 2 C0.99 2 1.98 2 3 2 C2.01 1.34 1.02 0.68 0 0 Z " fill="#ff3d3d" transform="translate(396,19)"/>
<path d="M0 0 C14.41881487 -0.27109405 14.41881487 -0.27109405 18.2109375 2.77734375 C19.51925358 4.86838072 20.45391149 6.59425874 21 9 C20.67 9.66 20.34 10.32 20 11 C15 5.25 15 5.25 15 3 C10.38 3 5.76 3 1 3 C1 6.63 1 10.26 1 14 C0.67 14 0.34 14 0 14 C-0.19456705 12.04235617 -0.38044247 10.08384679 -0.5625 8.125 C-0.66691406 7.03445312 -0.77132812 5.94390625 -0.87890625 4.8203125 C-1 2 -1 2 0 0 Z " fill="#ff3d3d" transform="translate(244,46)"/>
<path d="M0 0 C1.93627592 1.78733162 2.09724255 2.9750428 2.625 5.5 C-5.45244875 11.24031891 -5.45244875 11.24031891 -11.375 10.5 C-8.99042052 8.91028035 -6.7445876 7.63258407 -4.1875 6.375 C-3.47207031 6.02179687 -2.75664062 5.66859375 -2.01953125 5.3046875 C-1.47683594 5.03914063 -0.93414062 4.77359375 -0.375 4.5 C-0.375 3.51 -0.375 2.52 -0.375 1.5 C-0.99246094 1.8609375 -1.60992187 2.221875 -2.24609375 2.59375 C-8.34386091 5.93499228 -12.43769398 7.05946016 -19.375 6.5 C-19.375 6.17 -19.375 5.84 -19.375 5.5 C-18.41400391 5.35304688 -18.41400391 5.35304688 -17.43359375 5.203125 C-13.00107154 4.43684694 -9.31382995 3.70946332 -5.5 1.25 C-2.375 -0.5 -2.375 -0.5 0 0 Z " fill="#ff3d3d" transform="translate(417.375,53.5)"/>
<path d="M0 0 C6.29737206 -0.65597626 10.24495954 0.15900882 15.56640625 3.61328125 C16.03949219 4.07089844 16.51257813 4.52851563 17 5 C17 8 17 8 15 11 C14.31550781 10.71382812 13.63101562 10.42765625 12.92578125 10.1328125 C9.71638749 8.89019008 6.48089886 7.87299966 3.1875 6.875 C1.44533203 6.34519531 1.44533203 6.34519531 -0.33203125 5.8046875 C-1.21246094 5.53914063 -2.09289062 5.27359375 -3 5 C-3 4.67 -3 4.34 -3 4 C3.70126536 3.51263525 8.06561592 4.92291196 14 8 C14 7.01 14 6.02 14 5 C7.11175931 2.59009896 7.11175931 2.59009896 0 1 C0 0.67 0 0.34 0 0 Z " fill="#ff3d3d" transform="translate(402,20)"/>
<path d="M0 0 C0.33 0 0.66 0 1 0 C1.33 13.2 1.66 26.4 2 40 C3.32 40 4.64 40 6 40 C6.33 39.34 6.66 38.68 7 38 C7 39.32 7 40.64 7 42 C4.69 42 2.38 42 0 42 C0 28.14 0 14.28 0 0 Z " fill="#ff3d3d" transform="translate(238,23)"/>
<path d="M0 0 C0.99 0 1.98 0 3 0 C3.2475 0.78375 3.495 1.5675 3.75 2.375 C5.20140766 5.42295608 5.99550707 5.72536664 9 7 C10.75 8.625 10.75 8.625 12 10 C9.375 10.875 9.375 10.875 6 11 C3.46191703 9.39940713 1.65091074 7.49929542 0 5 C-0.375 2.125 -0.375 2.125 0 0 Z " fill="#ff3d3d" transform="translate(382,50)"/>
<path d="M0 0 C0.33 0.66 0.66 1.32 1 2 C0.35546875 2.79664063 -0.2890625 3.59328125 -0.953125 4.4140625 C-3.69512044 8.52705566 -3.66540251 12.55294285 -3.75 17.375 C-3.77964844 18.20644531 -3.80929688 19.03789063 -3.83984375 19.89453125 C-3.91000399 21.92917827 -3.95732895 23.96459091 -4 26 C-4.99 25.67 -5.98 25.34 -7 25 C-6.67 18.4 -6.34 11.8 -6 5 C-5.01 4.67 -4.02 4.34 -3 4 C-1.31461399 2.00334686 -1.31461399 2.00334686 0 0 Z " fill="#ff3d3d" transform="translate(115,38)"/>
<path d="M0 0 C-0.33 0.99 -0.66 1.98 -1 3 C-1.66 3 -2.32 3 -3 3 C-4.35712166 4.55855981 -4.35712166 4.55855981 -5.625 6.5 C-6.07101563 7.1496875 -6.51703125 7.799375 -6.9765625 8.46875 C-7.31429687 8.9740625 -7.65203125 9.479375 -8 10 C-9.32 9.34 -10.64 8.68 -12 8 C-7.89694067 1.31288628 -7.89694067 1.31288628 -4.3125 0.0625 C-2.87537383 0.02365875 -1.43765096 0 0 0 Z " fill="#ff3d3d" transform="translate(129,20)"/>
<path d="M0 0 C3.01217112 0.64449607 5.51655836 1.65022182 8.25 3.0625 C8.95640625 3.42472656 9.6628125 3.78695312 10.390625 4.16015625 C10.92171875 4.43730469 11.4528125 4.71445312 12 5 C11.67 5.66 11.34 6.32 11 7 C10.16855469 6.566875 10.16855469 6.566875 9.3203125 6.125 C8.59585937 5.75375 7.87140625 5.3825 7.125 5 C6.40570313 4.62875 5.68640625 4.2575 4.9453125 3.875 C3.05151023 2.86326254 3.05151023 2.86326254 1 3 C0.67 3.99 0.34 4.98 0 6 C0.94875 6.28875 1.8975 6.5775 2.875 6.875 C6 8 6 8 8 10 C2.64951939 9.62671065 0.49087093 8.0042343 -3 4 C-2.01 2.68 -1.02 1.36 0 0 Z " fill="#ff3d3d" transform="translate(22,53)"/>
<path d="M0 0 C0.66 0 1.32 0 2 0 C2 1.65 2 3.3 2 5 C2.89307861 4.96970703 3.78615723 4.93941406 4.70629883 4.90820312 C8.02171517 4.79598439 11.33714607 4.68421644 14.65258789 4.57275391 C16.0871643 4.52443202 17.52173468 4.47593077 18.95629883 4.42724609 C21.01902734 4.35727469 23.08177672 4.28794962 25.14453125 4.21875 C27.00621948 4.1559082 27.00621948 4.1559082 28.90551758 4.09179688 C30.93634879 4.03155289 32.96827543 4 35 4 C35 4.66 35 5.32 35 6 C23.78 6 12.56 6 1 6 C0.67 4.02 0.34 2.04 0 0 Z " fill="#ff3d3d" transform="translate(311,39)"/>
<path d="M0 0 C1.4540625 0.0309375 1.4540625 0.0309375 2.9375 0.0625 C2.9375 0.7225 2.9375 1.3825 2.9375 2.0625 C2.133125 2.18625 1.32875 2.31 0.5 2.4375 C-0.7684375 2.746875 -0.7684375 2.746875 -2.0625 3.0625 C-2.3925 3.7225 -2.7225 4.3825 -3.0625 5.0625 C-3.625 3.125 -3.625 3.125 -4.0625 1.0625 C-3.0625 0.0625 -3.0625 0.0625 0 0 Z M-7.0625 3.0625 C-6.0725 3.3925 -5.0825 3.7225 -4.0625 4.0625 C-4.375 6 -4.375 6 -5.0625 8.0625 C-6.0525 8.3925 -7.0425 8.7225 -8.0625 9.0625 C-8.7225 8.4025 -9.3825 7.7425 -10.0625 7.0625 C-9.7325 6.0725 -9.4025 5.0825 -9.0625 4.0625 C-8.4025 3.7325 -7.7425 3.4025 -7.0625 3.0625 Z " fill="#ff3d3d" transform="translate(391.0625,23.9375)"/>
<path d="M0 0 C0.33 0.99 0.66 1.98 1 3 C-5.63157895 7.05263158 -5.63157895 7.05263158 -8 8 C-8.99 7.67 -9.98 7.34 -11 7 C-11.33 6.34 -11.66 5.68 -12 5 C-10.37750059 4.16180842 -8.75191503 3.3295884 -7.125 2.5 C-6.22007812 2.0359375 -5.31515625 1.571875 -4.3828125 1.09375 C-2 0 -2 0 0 0 Z " fill="#ff3d3d" transform="translate(417,55)"/>
<path d="M0 0 C0.66 0.33 1.32 0.66 2 1 C2 2.66666667 2 4.33333333 2 6 C1.01 6.495 1.01 6.495 0 7 C0.04125 7.886875 0.0825 8.77375 0.125 9.6875 C0.00102754 12.97277013 -0.61387904 15.05449295 -2 18 C-2.33 18 -2.66 18 -3 18 C-3.33278764 11.18401613 -3.24201565 6.07877934 0 0 Z " fill="#ff3d3d" transform="translate(380,30)"/>
<path d="M0 0 C2.71675995 0.36712972 4.61063713 0.72744599 6.875 2.3125 C8 4 8 4 7.6875 6.1875 C7.460625 6.785625 7.23375 7.38375 7 8 C5.35 7.67 3.7 7.34 2 7 C1.34 4.69 0.68 2.38 0 0 Z " fill="#ff3d3d" transform="translate(87,21)"/>
<path d="M0 0 C2.9719385 1.12451727 5.33440687 2.22293791 8 4 C7.67 4.99 7.34 5.98 7 7 C1.25 5.125 1.25 5.125 -1 4 C-0.67 2.68 -0.34 1.36 0 0 Z " fill="#ff3d3d" transform="translate(23,55)"/>
<path d="M0 0 C0.556875 0.309375 1.11375 0.61875 1.6875 0.9375 C4.12540433 2.05761821 6.36224186 2.56037364 9 3 C9 3.99 9 4.98 9 6 C9.99 6.66 10.98 7.32 12 8 C8.9361192 8.43769726 6.83395091 8.60855877 4.265625 6.734375 C2.71528294 5.21356327 1.28159145 3.75423511 0 2 C0 1.34 0 0.68 0 0 Z " fill="#ff3d3d" transform="translate(190,57)"/>
<path d="M0 0 C2.86503068 1.2843241 5.15427705 2.41598787 7 5 C7.5 7.875 7.5 7.875 7 11 C4.5 13.875 4.5 13.875 2 16 C2.350625 15.319375 2.70125 14.63875 3.0625 13.9375 C4.25597795 10.19793577 3.89805621 7.7994686 3 4 C1.57324827 1.61971709 1.57324827 1.61971709 0 0 Z " fill="#ff3d3d" transform="translate(265,26)"/>
<path d="M0 0 C3.68754757 0.49831724 5.60490662 1.10067643 8 4 C5.10765685 4.82638376 3.11257569 5 0 5 C0 3.35 0 1.7 0 0 Z " fill="#ff3d3d" transform="translate(160,20)"/>
<path d="M0 0 C0.66 0.66 1.32 1.32 2 2 C-1.625 8.75 -1.625 8.75 -5 11 C-7.1875 10.625 -7.1875 10.625 -9 10 C-8.38125 9.731875 -7.7625 9.46375 -7.125 9.1875 C-4.7004767 8.04443152 -4.7004767 8.04443152 -3 5 C-2.34 4.34 -1.68 3.68 -1 3 C-0.67 2.01 -0.34 1.02 0 0 Z " fill="#ff3d3d" transform="translate(276,36)"/>
<path d="M0 0 C2.69082872 0.17635452 5.32851446 0.61835921 8 1 C6.35 2.65 4.7 4.3 3 6 C2.01 5.67 1.02 5.34 0 5 C-0.75 3 -0.75 3 -1 1 C-0.67 0.67 -0.34 0.34 0 0 Z " fill="#ff3d3d" transform="translate(28,36)"/>
<path d="M0 0 C1.5 1.375 1.5 1.375 3 3 C3 3.66 3 4.32 3 5 C2.34 5 1.68 5 1 5 C0.67 6.32 0.34 7.64 0 9 C-0.66 8.34 -1.32 7.68 -2 7 C-1.43181818 1.43181818 -1.43181818 1.43181818 0 0 Z " fill="#ff3d3d" transform="translate(170,26)"/>
<path d="M0 0 C3.96 0 7.92 0 12 0 C8 3 8 3 5.640625 3.07421875 C4.85171875 2.94660156 4.0628125 2.81898437 3.25 2.6875 C2.45078125 2.56761719 1.6515625 2.44773437 0.828125 2.32421875 C0.22484375 2.21722656 -0.3784375 2.11023438 -1 2 C-0.67 1.34 -0.34 0.68 0 0 Z " fill="#ff3d3d" transform="translate(33,19)"/>
<path d="M0 0 C2.58148508 0.35606691 3.82045747 0.83328193 5.75 2.625 C7.43754802 5.83134123 7.20576047 8.43348514 7 12 C5 9 5 9 3.5 5.4375 C2.25346749 2.00994231 2.25346749 2.00994231 0 0 Z " fill="#ff3d3d" transform="translate(270,23)"/>
<path d="M0 0 C-0.33 0.99 -0.66 1.98 -1 3 C-1.66 3 -2.32 3 -3 3 C-4.62514468 4.45833358 -4.62514468 4.45833358 -6 6 C-6.66 4.68 -7.32 3.36 -8 2 C-2.25 0 -2.25 0 0 0 Z " fill="#ff3d3d" transform="translate(129,20)"/>
<path d="M0 0 C2.97 0 5.94 0 9 0 C7.02 0.99 7.02 0.99 5 2 C4.67 2.99 4.34 3.98 4 5 C3.34 4.67 2.68 4.34 2 4 C2 3.01 2 2.02 2 1 C1.34 0.67 0.68 0.34 0 0 Z " fill="#ff3d3d" transform="translate(392,20)"/>
<path d="M0 0 C1.5 1.1875 1.5 1.1875 3 3 C3.1875 5.6875 3.1875 5.6875 3 8 C1.68 7.01 0.36 6.02 -1 5 C-0.67 3.35 -0.34 1.7 0 0 Z " fill="#ff3d3d" transform="translate(96,29)"/>
<path d="M0 0 C0.99 0 1.98 0 3 0 C3.33 1.65 3.66 3.3 4 5 C2.68 5 1.36 5 0 5 C0 3.35 0 1.7 0 0 Z " fill="#ff3d3d" transform="translate(382,50)"/>
</svg>
