<?xml version="1.0" encoding="UTF-8"?>
<svg version="1.1" xmlns="http://www.w3.org/2000/svg" width="256" height="256">
<path d="M0 0 C84.48 0 168.96 0 256 0 C256 84.48 256 168.96 256 256 C171.52 256 87.04 256 0 256 C0 171.52 0 87.04 0 0 Z " fill="#FCFDFD" transform="translate(0,0)"/>
<path d="M0 0 C1.06270111 -0.00189835 2.12540222 -0.00379669 3.2203064 -0.00575256 C6.71083092 -0.00943879 10.20114458 0.00120923 13.69165039 0.01245117 C16.12162756 0.0136438 18.55160519 0.01409596 20.98158264 0.01383972 C26.06115627 0.01540061 31.14065903 0.0236635 36.22021484 0.03710938 C42.74638477 0.05416205 49.27247735 0.05792171 55.79866695 0.05716419 C60.80931849 0.05743532 65.81995295 0.06290626 70.83059883 0.07016563 C73.23847894 0.07335667 75.64636098 0.07532072 78.05424309 0.07605934 C81.40598771 0.07821472 84.75764828 0.08693959 88.109375 0.09765625 C89.11244186 0.09720306 90.11550873 0.09674988 91.14897156 0.09628296 C92.05592773 0.10054794 92.96288391 0.10481293 93.89732361 0.10920715 C94.68981475 0.110883 95.48230589 0.11255884 96.29881191 0.11428547 C98.10180664 0.24291992 98.10180664 0.24291992 99.10180664 1.24291992 C99.24019314 3.6353839 99.31496389 5.99681952 99.34008789 8.39135742 C99.34815964 9.11851959 99.35623138 9.84568176 99.36454773 10.59487915 C99.37841599 12.14338789 99.38912581 13.69192756 99.39697266 15.24047852 C99.41398605 17.57394934 99.45781656 19.90592738 99.50219727 22.23901367 C99.63487185 35.0194561 97.44977865 44.80672414 88.91430664 54.80541992 C80.15873342 62.39358338 72.36981243 62.92315442 61.14395332 62.77337456 C58.42841683 62.73833895 55.71450317 62.73596501 52.99876404 62.74171448 C46.24972251 62.74996959 39.50121512 62.70888972 32.75238037 62.65881348 C27.04878884 62.61725594 21.34617098 62.60028126 15.64243889 62.61616707 C12.99997539 62.6140783 10.35956751 62.57723197 7.71742249 62.53892517 C-7.30772564 62.47982678 -24.37892353 65.70964187 -35.89819336 76.24291992 C-37.13919117 78.07649481 -37.13919117 78.07649481 -36.89819336 80.24291992 C-35.1046326 82.88366455 -35.1046326 82.88366455 -32.39819336 85.43041992 C-31.67442505 86.16856934 -31.67442505 86.16856934 -30.93603516 86.92163086 C-28.0955264 89.66640213 -25.4602919 91.58757019 -21.82397461 93.15307617 C-13.32322337 96.88061398 -13.32322337 96.88061398 -10.89819336 100.24291992 C-9.02223793 107.70938854 -9.98383981 115.68145055 -10.89819336 123.24291992 C-26.80733988 123.65518749 -39.39037707 118.50254639 -51.30834961 108.14916992 C-64.1366781 94.9006457 -67.39571159 77.80623339 -67.32250977 60.04394531 C-67.14689445 52.51900591 -66.29696519 46.05160711 -62.89819336 39.24291992 C-62.35485352 38.07696289 -62.35485352 38.07696289 -61.80053711 36.88745117 C-56.61714398 26.67880234 -49.13157845 18.87430438 -39.89819336 12.24291992 C-39.25237305 11.77112305 -38.60655273 11.29932617 -37.94116211 10.81323242 C-26.62675196 3.14325333 -13.46633927 -0.07652381 0 0 Z " fill="#1E2A39" transform="translate(112.898193359375,22.757080078125)"/>
<path d="M0 0 C13.0483463 0.97915812 24.0180629 5.69669131 33.20703125 15.0546875 C44.6894532 28.56485631 46.43989173 45.04711483 45.20703125 62.0546875 C43.35359106 75.1288775 37.73275583 86.15444523 29.20703125 96.0546875 C28.70816406 96.64894531 28.20929688 97.24320312 27.6953125 97.85546875 C15.62904667 111.07669202 -3.58935684 119.00895483 -21.20950699 120.22090149 C-27.91911491 120.48351173 -34.63051825 120.42482033 -41.34375 120.3828125 C-43.49610766 120.37974913 -45.64846731 120.37787741 -47.80082703 120.37713623 C-52.27965041 120.3725637 -56.75829092 120.35824511 -61.23706055 120.3359375 C-66.9895728 120.30743434 -72.74194303 120.29670046 -78.49451923 120.2922554 C-82.92355271 120.28811282 -87.35255734 120.27830874 -91.78157616 120.26638031 C-93.90476437 120.26067272 -96.02795536 120.25591564 -98.15114784 120.25211334 C-101.09992063 120.24528087 -104.04857812 120.23166889 -106.99731445 120.21582031 C-107.87874619 120.21470245 -108.76017792 120.21358459 -109.6683197 120.21243286 C-115.67826489 120.16939136 -115.67826489 120.16939136 -116.79296875 119.0546875 C-116.93135525 116.66222353 -117.006126 114.3007879 -117.03125 111.90625 C-117.03932175 111.17908783 -117.04739349 110.45192566 -117.05570984 109.70272827 C-117.0695781 108.15421953 -117.08028792 106.60567987 -117.08813477 105.05712891 C-117.10514816 102.72365808 -117.14897867 100.39168004 -117.19335938 98.05859375 C-117.3147439 86.49443146 -115.92337716 76.27885032 -108.01481628 67.20117188 C-98.96740076 58.46063691 -88.20468231 58.21459763 -76.41796875 58.35546875 C-74.75991902 58.35182472 -73.10187353 58.34510684 -71.44384766 58.335495 C-67.10819508 58.31655889 -62.77335085 58.33033399 -58.43774414 58.35400391 C-51.50179026 58.38857803 -44.56603594 58.38237464 -37.63006592 58.3578701 C-35.23046286 58.3555297 -32.83163542 58.37316756 -30.43212891 58.3931427 C-18.5522347 58.42769447 -8.07069649 56.78309707 2.51953125 51.1796875 C3.4950293 50.69048828 3.4950293 50.69048828 4.49023438 50.19140625 C9.04290727 47.85367012 13.09933641 45.10490334 17.20703125 42.0546875 C15.89251959 39.16779347 14.48445521 37.01126608 12.26953125 34.7421875 C11.66109375 34.11699219 11.05265625 33.49179688 10.42578125 32.84765625 C8.23897282 30.90669484 8.23897282 30.90669484 5.30078125 29.85546875 C1.6096692 28.27152505 -0.30155878 27.25603907 -2.79296875 24.0546875 C-4.26710882 16.65413472 -3.80865791 8.5070915 -2.79296875 1.0546875 C-1.79296875 0.0546875 -1.79296875 0.0546875 0 0 Z " fill="#2A3545" transform="translate(166.79296875,118.9453125)"/>
<path d="M0 0 C5.26855597 0.43771991 8.53440837 2.42371977 12.625 5.5625 C13.84721137 6.47759833 15.07120508 7.39032047 16.296875 8.30078125 C16.90982422 8.75662598 17.52277344 9.2124707 18.15429688 9.68212891 C19.92359838 10.94544763 21.72117871 12.10098065 23.578125 13.23046875 C24.66609375 13.89691406 25.7540625 14.56335938 26.875 15.25 C28.35613281 16.12398437 28.35613281 16.12398437 29.8671875 17.015625 C32 19 32 19 32.7421875 21.9296875 C31.85253775 25.61002803 30.41322019 26.68320197 27.27490234 28.67822266 C26.27257568 29.27062744 26.27257568 29.27062744 25.25 29.875 C23.87196766 30.73368825 22.49436925 31.59307322 21.1171875 32.453125 C20.42463867 32.87658203 19.73208984 33.30003906 19.01855469 33.73632812 C17.13850593 34.9132914 15.31939548 36.14273989 13.5078125 37.421875 C12.47398437 38.14890625 11.44015625 38.8759375 10.375 39.625 C8.99441406 40.60339844 8.99441406 40.60339844 7.5859375 41.6015625 C4.75767993 43.13104318 3.16435159 43.38860458 0 43 C-1.89173694 41.10826306 -1.12895949 38.35596235 -1.13894653 35.83937073 C-1.1369223 34.97585495 -1.13489807 34.11233917 -1.1328125 33.22265625 C-1.13376923 32.34097275 -1.13472595 31.45928925 -1.13571167 30.55088806 C-1.13639359 28.68211801 -1.13453851 26.81334561 -1.13037109 24.94458008 C-1.12502932 22.07823372 -1.13031242 19.21204453 -1.13671875 16.34570312 C-1.13605785 14.53385382 -1.13477643 12.72200461 -1.1328125 10.91015625 C-1.13584885 9.61791893 -1.13584885 9.61791893 -1.13894653 8.29957581 C-1.11495439 2.22990878 -1.11495439 2.22990878 0 0 Z " fill="#DB5F59" transform="translate(121,104)"/>
<path d="M0 0 C8.95606196 0.6720699 18.53194617 3.21476118 26.08203125 8.2421875 C28.77719808 11.80932006 28.88637237 13.99216715 28.59375 18.375 C27.36431827 26.89409262 24.34082515 33.17640052 19.20703125 40.0546875 C16.19669613 38.72181774 14.33064791 37.31049436 12.14453125 34.8671875 C9.91553113 32.43864807 8.38039758 31.12688453 5.30859375 29.84765625 C1.60725889 28.27292381 -0.29821941 27.26033002 -2.79296875 24.0546875 C-4.26710882 16.65413472 -3.80865791 8.5070915 -2.79296875 1.0546875 C-1.79296875 0.0546875 -1.79296875 0.0546875 0 0 Z " fill="#1D2736" transform="translate(166.79296875,118.9453125)"/>
<path d="M0 0 C2.97 0.495 2.97 0.495 6 1 C6.02714735 3.22909871 6.04646254 5.45829367 6.0625 7.6875 C6.07410156 8.92886719 6.08570313 10.17023438 6.09765625 11.44921875 C6 15 6 15 5.37109375 17.64453125 C4.89995178 20.63504294 5.6971171 22.31759404 7 25 C-2.08331724 33.64450964 -11.0599643 39.1410531 -23 43 C-23.79953138 39.71303767 -24.09658936 38.28976808 -23 35 C-25.31 35 -27.62 35 -30 35 C-30 31.37 -30 27.74 -30 24 C-24.25299728 21.08088751 -20.20714738 19.54224921 -13.75 19.95703125 C-13.1725 19.97121094 -12.595 19.98539063 -12 20 C-8.51379422 16.51379422 -8.50543902 7.7174309 -8 3 C-7.01 3 -6.02 3 -5 3 C-3.32900023 2.68911632 -1.66128463 2.35919668 0 2 C0 1.34 0 0.68 0 0 Z " fill="#333D4C" transform="translate(187,192)"/>
<path d="M0 0 C1.15249741 0.00222061 2.30499481 0.00444122 3.49241638 0.00672913 C5.4443264 0.00684242 5.4443264 0.00684242 7.43566895 0.00695801 C8.86661313 0.01206543 10.29755694 0.01728144 11.72850037 0.02259827 C13.18438672 0.02446249 14.64027369 0.02588637 16.09616089 0.02688599 C19.93488791 0.03071086 23.77357731 0.04054088 27.61228943 0.05158997 C31.52667227 0.06180474 35.44106117 0.06638375 39.35545349 0.07142639 C47.04101755 0.08216318 54.72655057 0.09923923 62.41209412 0.12025452 C62.08209412 2.43025452 61.75209412 4.74025452 61.41209412 7.12025452 C57.78209412 7.45025452 54.15209412 7.78025452 50.41209412 8.12025452 C49.75209412 10.10025452 49.09209412 12.08025452 48.41209412 14.12025452 C47.42209412 14.12025452 46.43209412 14.12025452 45.41209412 14.12025452 C45.08209412 14.78025452 44.75209412 15.44025452 44.41209412 16.12025452 C43.75209412 16.12025452 43.09209412 16.12025452 42.41209412 16.12025452 C42.08209412 16.78025452 41.75209412 17.44025452 41.41209412 18.12025452 C40.42209412 18.45025452 39.43209412 18.78025452 38.41209412 19.12025452 C38.41209412 14.50025452 38.41209412 9.88025452 38.41209412 5.12025452 C38.08209412 5.78025452 37.75209412 6.44025452 37.41209412 7.12025452 C34.83006287 7.49916077 34.83006287 7.49916077 31.59959412 7.68275452 C28.07532438 7.89309461 24.80733502 8.12552292 21.41209412 9.12025452 C18.41209412 3.24525452 18.41209412 3.24525452 18.41209412 2.12025452 C14.48133767 2.69478198 14.48133767 2.69478198 11.41209412 5.12025452 C11.41209412 5.78025452 11.41209412 6.44025452 11.41209412 7.12025452 C7.45209412 7.12025452 3.49209412 7.12025452 -0.58790588 7.12025452 C-0.25790588 6.46025452 0.07209412 5.80025452 0.41209412 5.12025452 C-0.54656097 2.78949522 -0.54656097 2.78949522 -3.58790588 1.12025452 C-2.58790588 0.12025452 -2.58790588 0.12025452 0 0 Z " fill="#1A2433" transform="translate(117.58790588378906,22.879745483398438)"/>
<path d="M0 0 C1.97909398 -0.02686553 3.95828971 -0.04633375 5.9375 -0.0625 C7.03964844 -0.07410156 8.14179688 -0.08570313 9.27734375 -0.09765625 C12 0 12 0 13 1 C13.09823937 2.66429051 13.12973631 4.33281931 13.125 6 C13.12757813 6.9075 13.13015625 7.815 13.1328125 8.75 C13 11 13 11 12 12 C10.16884117 12.09851171 8.33380067 12.12972629 6.5 12.125 C5.4996875 12.12757813 4.499375 12.13015625 3.46875 12.1328125 C1 12 1 12 0 11 C-0.07226502 9.14712498 -0.0838122 7.29166122 -0.0625 5.4375 C-0.05347656 4.42558594 -0.04445312 3.41367188 -0.03515625 2.37109375 C-0.02355469 1.58863281 -0.01195312 0.80617187 0 0 Z " fill="#EBEEF1" transform="translate(131,220)"/>
<path d="M0 0 C1.97909398 -0.02686553 3.95828971 -0.04633375 5.9375 -0.0625 C7.03964844 -0.07410156 8.14179687 -0.08570313 9.27734375 -0.09765625 C12 0 12 0 13 1 C13.09823937 2.66429051 13.12973631 4.33281931 13.125 6 C13.12757812 6.9075 13.13015625 7.815 13.1328125 8.75 C13 11 13 11 12 12 C10.16884117 12.09851171 8.33380067 12.12972629 6.5 12.125 C5.4996875 12.12757813 4.499375 12.13015625 3.46875 12.1328125 C1 12 1 12 0 11 C-0.07226502 9.14712498 -0.0838122 7.29166122 -0.0625 5.4375 C-0.05347656 4.42558594 -0.04445313 3.41367188 -0.03515625 2.37109375 C-0.02355469 1.58863281 -0.01195313 0.80617187 0 0 Z " fill="#EAEEF0" transform="translate(107,220)"/>
<path d="M0 0 C1.50046875 0.00386719 1.50046875 0.00386719 3.03125 0.0078125 C4.0315625 0.00523438 5.031875 0.00265625 6.0625 0 C8.53125 0.1328125 8.53125 0.1328125 9.53125 1.1328125 C9.60351502 2.98568752 9.6150622 4.84115128 9.59375 6.6953125 C9.58472656 7.70722656 9.57570312 8.71914063 9.56640625 9.76171875 C9.55480469 10.54417969 9.54320312 11.32664062 9.53125 12.1328125 C7.55215602 12.15967803 5.57296029 12.17914625 3.59375 12.1953125 C2.49160156 12.20691406 1.38945312 12.21851563 0.25390625 12.23046875 C-2.46875 12.1328125 -2.46875 12.1328125 -3.46875 11.1328125 C-3.56698937 9.46852199 -3.59848631 7.79999319 -3.59375 6.1328125 C-3.59632813 5.2253125 -3.59890625 4.3178125 -3.6015625 3.3828125 C-3.41432647 0.21081393 -3.18581223 0.17138863 0 0 Z " fill="#ECEFF1" transform="translate(170.46875,29.8671875)"/>
<path d="M0 0 C0 3.3 0 6.6 0 10 C-1.97729981 10.52787642 -3.95690392 11.04712903 -5.9375 11.5625 C-7.59072266 11.99755859 -7.59072266 11.99755859 -9.27734375 12.44140625 C-10.17582031 12.62574219 -11.07429688 12.81007813 -12 13 C-13.66684015 11.33315985 -13.21072764 9.34356931 -13.25 7.0625 C-13.27578125 6.16660156 -13.3015625 5.27070312 -13.328125 4.34765625 C-13.21984375 3.57292969 -13.1115625 2.79820313 -13 2 C-8.47433587 -1.01710942 -5.23518729 -1.34619102 0 0 Z " fill="#EAEEF0" transform="translate(105,34)"/>
<path d="M0 0 C4.29 0 8.58 0 13 0 C13 3.63 13 7.26 13 11 C8.71 11 4.42 11 0 11 C0 7.37 0 3.74 0 0 Z " fill="#F1F4F7" transform="translate(142,31)"/>
<path d="M0 0 C4.29 0 8.58 0 13 0 C13 3.63 13 7.26 13 11 C8.71 11 4.42 11 0 11 C0 7.37 0 3.74 0 0 Z " fill="#F3F6F7" transform="translate(117,31)"/>
<path d="M0 0 C1.97909398 -0.02686553 3.95828971 -0.04633375 5.9375 -0.0625 C7.03964844 -0.07410156 8.14179687 -0.08570313 9.27734375 -0.09765625 C12 0 12 0 13 1 C13.14257189 4.33618231 13.04228157 7.65975606 13 11 C8.71 11 4.42 11 0 11 C0 7.37 0 3.74 0 0 Z " fill="#EFF2F4" transform="translate(83,220)"/>
<path d="M0 0 C0 3.63 0 7.26 0 11 C-8.625 15 -8.625 15 -12 15 C-12 11.37 -12 7.74 -12 4 C-3.375 0 -3.375 0 0 0 Z " fill="#F2F5F7" transform="translate(169,212)"/>
<path d="M0 0 C0.64855506 3.51660964 0.8367252 6.50456811 0 10 C-2.93864958 13.27913482 -6.25194433 15.70631807 -10 18 C-10.33 18 -10.66 18 -11 18 C-12.21558442 6.62077922 -12.21558442 6.62077922 -9.32421875 2.765625 C-3.99010791 -1.33003597 -3.99010791 -1.33003597 0 0 Z " fill="#EAEFF1" transform="translate(81,44)"/>
<path d="M0 0 C3.96 0 7.92 0 12 0 C12 3.63 12 7.26 12 11 C8.04 11 4.08 11 0 11 C0 7.37 0 3.74 0 0 Z " fill="#F6F9FB" transform="translate(59,220)"/>
<path d="M0 0 C3.96 0 7.92 0 12 0 C12 3.63 12 7.26 12 11 C8.04 11 4.08 11 0 11 C0 7.37 0 3.74 0 0 Z " fill="#F9FBFC" transform="translate(192,31)"/>
<path d="M0 0 C1.22690583 10.22421525 1.22690583 10.22421525 -1.78125 14.578125 C-3.77365227 16.52843427 -5.77999547 18.31517513 -8 20 C-8.99 19.67 -9.98 19.34 -11 19 C-11.66144072 15.4796655 -11.81905471 12.50400328 -11 9 C-3.60761347 0 -3.60761347 0 0 0 Z " fill="#F9FBFC" transform="translate(192,194)"/>
<path d="M0 0 C4.62 0 9.24 0 14 0 C9.54122622 6.62790698 9.54122622 6.62790698 5.15234375 7.6875 C2.44212563 7.91131156 -0.28075853 7.96683852 -3 8 C-3.33 11.63 -3.66 15.26 -4 19 C-4.33 19 -4.66 19 -5 19 C-5 15.04 -5 11.08 -5 7 C-3.68 6.34 -2.36 5.68 -1 5 C-0.67 3.35 -0.34 1.7 0 0 Z " fill="#182130" transform="translate(195,23)"/>
<path d="M0 0 C5.62507209 0.43070996 8.82786303 2.5901508 13.1875 5.875 C13.80302734 6.32230469 14.41855469 6.76960938 15.05273438 7.23046875 C17.90499751 9.32563062 20.54147162 11.45904484 23 14 C19.26299617 13.34624519 16.60409649 11.66713162 13.4375 9.625 C12.48746094 9.01914063 11.53742188 8.41328125 10.55859375 7.7890625 C8 6 8 6 6.41015625 4.2734375 C4.82189565 2.55319119 4.82189565 2.55319119 1 3 C1 15.87 1 28.74 1 42 C2.32 42.33 3.64 42.66 5 43 C3.33388095 43.042721 1.66617115 43.04063832 0 43 C-1.89173694 41.10826306 -1.12895949 38.35596235 -1.13894653 35.83937073 C-1.1369223 34.97585495 -1.13489807 34.11233917 -1.1328125 33.22265625 C-1.13376923 32.34097275 -1.13472595 31.45928925 -1.13571167 30.55088806 C-1.13639359 28.68211801 -1.13453851 26.81334561 -1.13037109 24.94458008 C-1.12502932 22.07823372 -1.13031242 19.21204453 -1.13671875 16.34570312 C-1.13605785 14.53385382 -1.13477643 12.72200461 -1.1328125 10.91015625 C-1.13584885 9.61791893 -1.13584885 9.61791893 -1.13894653 8.29957581 C-1.11495439 2.22990878 -1.11495439 2.22990878 0 0 Z " fill="#C5736F" transform="translate(121,104)"/>
<path d="M0 0 C0.66 0 1.32 0 2 0 C2.02714735 2.22909871 2.04646254 4.45829367 2.0625 6.6875 C2.07410156 7.92886719 2.08570313 9.17023438 2.09765625 10.44921875 C2 14 2 14 1.4375 16.78125 C0.85981029 19.7109621 1.71963006 21.36394425 3 24 C1.35 25.65 -0.3 27.3 -2 29 C-2.99 28.67 -3.98 28.34 -5 28 C-4.67 27.071875 -4.34 26.14375 -4 25.1875 C-2.85032996 22.07970709 -2.85032996 22.07970709 -3 19 C-3.66 19.66 -4.32 20.32 -5 21 C-5 20.01 -5 19.02 -5 18 C-4.175 17.38125 -3.35 16.7625 -2.5 16.125 C-0.17743556 14.02487835 0.00138723 12.98656835 0.33203125 9.78515625 C0.31425656 6.51105847 0.21523316 3.2667611 0 0 Z " fill="#384151" transform="translate(191,193)"/>
<path d="M0 0 C0.66 0.33 1.32 0.66 2 1 C1.51789063 1.64066406 1.03578125 2.28132813 0.5390625 2.94140625 C-5.91963913 11.78587317 -8.05537662 18.61236369 -6.5 29.5 C-6.335 30.325 -6.17 31.15 -6 32 C-8.33711844 30.34691622 -9.57365831 29.41380901 -11 27 C-11.99904522 18.48758727 -8.51326834 10.77004726 -3.55859375 4.04296875 C-2.41853639 2.65606137 -1.21629878 1.32055297 0 0 Z " fill="#4D5866" transform="translate(72,102)"/>
<path d="M0 0 C0.33 0 0.66 0 1 0 C1 4.29 1 8.58 1 13 C-3.29 13 -7.58 13 -12 13 C-10 11 -10 11 -7.625 9.6875 C-3.71221001 7.17213501 -1.4691662 4.4074986 0 0 Z " fill="#000000" transform="translate(255,243)"/>
<path d="M0 0 C0.99 1.32 1.98 2.64 3 4 C6.03135135 7.98862019 8.1023147 10.60066134 13 12 C13 12.33 13 12.66 13 13 C8.71 13 4.42 13 0 13 C0 8.71 0 4.42 0 0 Z " fill="#000000" transform="translate(0,243)"/>
<path d="M0 0 C4.29 0 8.58 0 13 0 C13 4.29 13 8.58 13 13 C11.37240592 10.82987456 9.7539636 8.65215544 8.1875 6.4375 C5.70966008 3.67647838 3.38115243 2.46004309 0 1 C0 0.67 0 0.34 0 0 Z " fill="#000000" transform="translate(243,0)"/>
<path d="M0 0 C4.29 0 8.58 0 13 0 C12.01 0.66 11.02 1.32 10 2 C5.56377205 5.32717096 3.19177593 7.76409084 1 13 C0.67 13 0.34 13 0 13 C0 8.71 0 4.42 0 0 Z " fill="#000000" transform="translate(0,0)"/>
<path d="M0 0 C0.99 0.66 1.98 1.32 3 2 C2.34 2.66 1.68 3.32 1 4 C1.33 4.99 1.66 5.98 2 7 C1.1646875 7.3403125 1.1646875 7.3403125 0.3125 7.6875 C-2.63246684 9.35896766 -4.68156544 11.55276352 -7 14 C-7.66 12.68 -8.32 11.36 -9 10 C-8.2575 9.46375 -7.515 8.9275 -6.75 8.375 C-3.82325039 5.84735261 -2.01378661 3.28172632 0 0 Z " fill="#3C4552" transform="translate(188,155)"/>
<path d="M0 0 C0.99 0.66 1.98 1.32 3 2 C2.09970429 3.34444159 1.17911978 4.67531438 0.25 6 C-0.51570312 7.11375 -0.51570312 7.11375 -1.296875 8.25 C-2.13992187 9.11625 -2.13992187 9.11625 -3 10 C-4.32 10 -5.64 10 -7 10 C-7.33 7.69 -7.66 5.38 -8 3 C-5 2 -5 2 -1 2 C-0.67 1.34 -0.34 0.68 0 0 Z M-4 4 C-3.34 4.66 -2.68 5.32 -2 6 C-2 5.34 -2 4.68 -2 4 C-2.66 4 -3.32 4 -4 4 Z " fill="#313C4C" transform="translate(199,205)"/>
<path d="M0 0 C0 3.93169105 -1.39419615 5.16427228 -4 8 C-4.66 8 -5.32 8 -6 8 C-6.99 10.97 -7.98 13.94 -9 17 C-8.01 17.33 -7.02 17.66 -6 18 C-6.33 18.66 -6.66 19.32 -7 20 C-7.99 19.67 -8.98 19.34 -10 19 C-10.66154458 15.47911273 -10.82384089 12.50374684 -10 9 C-7.05449591 5.47056264 -3.68808329 2.72654729 0 0 Z " fill="#D2D7DC" transform="translate(191,194)"/>
<path d="M0 0 C0.66 0.33 1.32 0.66 2 1 C1.01 2.485 1.01 2.485 0 4 C-1.32 3.67 -2.64 3.34 -4 3 C-2.68 2.01 -1.36 1.02 0 0 Z M-5 4 C-4.34 4 -3.68 4 -3 4 C-3.33 8.62 -3.66 13.24 -4 18 C-4.33 18 -4.66 18 -5 18 C-5 14.7 -5 11.4 -5 8 C-8.96 8 -12.92 8 -17 8 C-17 7.67 -17 7.34 -17 7 C-13.37 7 -9.74 7 -6 7 C-5.67 6.01 -5.34 5.02 -5 4 Z " fill="#4B545F" transform="translate(209,23)"/>
<path d="M0 0 C0.66 0 1.32 0 2 0 C1.54738642 1.43931117 1.08767021 2.87638999 0.625 4.3125 C0.36976563 5.11300781 0.11453125 5.91351563 -0.1484375 6.73828125 C-1 9 -1 9 -3 12 C-3.99 11.67 -4.98 11.34 -6 11 C-7.17755913 8.05610218 -7.03348696 7.10046087 -6 4 C-5.34 4.33 -4.68 4.66 -4 5 C-3.34 5 -2.68 5 -2 5 C-1.34 3.35 -0.68 1.7 0 0 Z " fill="#3D4551" transform="translate(207,192)"/>
<path d="M0 0 C3.63 0.33 7.26 0.66 11 1 C11 1.33 11 1.66 11 2 C6.545 2.495 6.545 2.495 2 3 C1.34 4.98 0.68 6.96 0 9 C-1.32 9 -2.64 9 -4 9 C-4.6875 7.1875 -4.6875 7.1875 -5 5 C-3.6875 3.25 -3.6875 3.25 -2 2 C-1.34 2 -0.68 2 0 2 C0 1.34 0 0.68 0 0 Z " fill="#16202B" transform="translate(166,28)"/>
<path d="M0 0 C2.32472205 2.85306797 3.7508258 5.54074837 5 9 C4.34 9 3.68 9 3 9 C3 9.99 3 10.98 3 12 C2.34 12 1.68 12 1 12 C-0.79760213 8.18009548 -1.28743526 5.21571713 -1 1 C-0.67 0.67 -0.34 0.34 0 0 Z " fill="#3F4755" transform="translate(203,139)"/>
<path d="M0 0 C1.2065625 0.0309375 1.2065625 0.0309375 2.4375 0.0625 C2.7675 0.7225 3.0975 1.3825 3.4375 2.0625 C1.7875 2.3925 0.1375 2.7225 -1.5625 3.0625 C-1.8925 9.9925 -2.2225 16.9225 -2.5625 24.0625 C-2.8925 24.0625 -3.2225 24.0625 -3.5625 24.0625 C-3.59137236 20.25001574 -3.60925492 16.4375593 -3.625 12.625 C-3.63337891 11.53638672 -3.64175781 10.44777344 -3.65039062 9.32617188 C-3.65361328 8.29169922 -3.65683594 7.25722656 -3.66015625 6.19140625 C-3.66539307 5.23306885 -3.67062988 4.27473145 -3.67602539 3.28735352 C-3.5119814 0.07244412 -3.23898215 0.07899956 0 0 Z " fill="#505560" transform="translate(167.5625,118.9375)"/>
<path d="M0 0 C0.99 0.66 1.98 1.32 3 2 C3.1875 4.625 3.1875 4.625 3 7 C1.68 7.33 0.36 7.66 -1 8 C-1.66 7.01 -2.32 6.02 -3 5 C-2 2 -2 2 0 0 Z " fill="#293140" transform="translate(76,104)"/>
<path d="M0 0 C0.66 0 1.32 0 2 0 C2.054138 2.24973447 2.09285491 4.49984383 2.125 6.75 C2.14820313 8.00296875 2.17140625 9.2559375 2.1953125 10.546875 C2.0147594 13.73905381 1.86967613 15.44931601 0 18 C-0.99 18.33 -1.98 18.66 -3 19 C-3.66 19.66 -4.32 20.32 -5 21 C-5 20.01 -5 19.02 -5 18 C-4.175 17.38125 -3.35 16.7625 -2.5 16.125 C-0.17743556 14.02487835 0.00138723 12.98656835 0.33203125 9.78515625 C0.31425656 6.51105847 0.21523316 3.2667611 0 0 Z " fill="#525965" transform="translate(191,193)"/>
<path d="M0 0 C0.66 0.66 1.32 1.32 2 2 C0.02 2.66 -1.96 3.32 -4 4 C-4 4.99 -4 5.98 -4 7 C-6.5 9.1875 -6.5 9.1875 -9 11 C-9.33 9.68 -9.66 8.36 -10 7 C-8.70982586 6.01886757 -7.41780894 5.04015801 -6.125 4.0625 C-5.04605469 3.24458984 -5.04605469 3.24458984 -3.9453125 2.41015625 C-2 1 -2 1 0 0 Z " fill="#E3E9ED" transform="translate(85,93)"/>
<path d="M0 0 C0.66 0.33 1.32 0.66 2 1 C1.84660156 1.54140625 1.69320312 2.0828125 1.53515625 2.640625 C0.92128392 5.34704023 0.66791243 7.9850509 0.4375 10.75 C0.35371094 11.73484375 0.26992187 12.7196875 0.18359375 13.734375 C0.12300781 14.48203125 0.06242188 15.2296875 0 16 C-0.33 16 -0.66 16 -1 16 C-1 12.37 -1 8.74 -1 5 C-4.96 5 -8.92 5 -13 5 C-13 4.67 -13 4.34 -13 4 C-9.04 4 -5.08 4 -1 4 C-0.67 2.68 -0.34 1.36 0 0 Z " fill="#4F5762" transform="translate(156,26)"/>
<path d="M0 0 C0.99 0.33 1.98 0.66 3 1 C3.4375 3.6875 3.4375 3.6875 3 7 C0.92559199 9.10707585 -1.37070339 10.65560852 -4 12 C-4.66 12 -5.32 12 -6 12 C-5.67 11.01 -5.34 10.02 -5 9 C-4.01 9 -3.02 9 -2 9 C-2 8.34 -2 7.68 -2 7 C-1.34 6.67 -0.68 6.34 0 6 C0 4.02 0 2.04 0 0 Z " fill="#C4706E" transform="translate(150,122)"/>
<path d="M0 0 C0 3.60914711 -1.1724021 4.85500239 -3.5 7.5 C-5.79013189 9.79013189 -8.16090578 11.45701401 -11 13 C-11.99 12.67 -12.98 12.34 -14 12 C-13.40832031 11.55269531 -12.81664062 11.10539063 -12.20703125 10.64453125 C-7.85117433 7.31190989 -3.75643454 3.99878515 0 0 Z " fill="#E7EBEF" transform="translate(197,213)"/>
<path d="M0 0 C0.66 0 1.32 0 2 0 C2.66 1.32 3.32 2.64 4 4 C3.34 4 2.68 4 2 4 C2 6.97 2 9.94 2 13 C1.67 13 1.34 13 1 13 C1 9.7 1 6.4 1 3 C-2.96 3 -6.92 3 -11 3 C-11 2.67 -11 2.34 -11 2 C-7.37 2 -3.74 2 0 2 C0 1.34 0 0.68 0 0 Z " fill="#4F5660" transform="translate(129,28)"/>
<path d="M0 0 C-3.63 2.31 -7.26 4.62 -11 7 C-11.33 6.01 -11.66 5.02 -12 4 C-11.34 4 -10.68 4 -10 4 C-10 3.34 -10 2.68 -10 2 C-3.375 -1.125 -3.375 -1.125 0 0 Z " fill="#C96A65" transform="translate(138,139)"/>
<path d="M0 0 C0.66 0.33 1.32 0.66 2 1 C1.51789063 1.68707031 1.03578125 2.37414062 0.5390625 3.08203125 C-0.09257813 3.98308594 -0.72421875 4.88414063 -1.375 5.8125 C-2.00148438 6.70582031 -2.62796875 7.59914063 -3.2734375 8.51953125 C-4.53550239 10.33267878 -5.77458808 12.16188211 -7 14 C-7.33 13.01 -7.66 12.02 -8 11 C-5.68287538 7.05230621 -2.90646395 3.52927766 0 0 Z " fill="#454F61" transform="translate(72,102)"/>
<path d="M0 0 C0.99 0.33 1.98 0.66 3 1 C1.33333333 4.33333333 -0.33333333 7.66666667 -2 11 C-2.66 11 -3.32 11 -4 11 C-3.52269162 9.5410574 -3.04308958 8.08286504 -2.5625 6.625 C-2.29566406 5.81289063 -2.02882812 5.00078125 -1.75390625 4.1640625 C-1 2 -1 2 0 0 Z " fill="#2D3642" transform="translate(52,58)"/>
<path d="M0 0 C0.99 0.66 1.98 1.32 3 2 C1.35 4.31 -0.3 6.62 -2 9 C-2.66 8.67 -3.32 8.34 -4 8 C-4 7.34 -4 6.68 -4 6 C-3.34 6 -2.68 6 -2 6 C-1.34 4.02 -0.68 2.04 0 0 Z " fill="#3C4550" transform="translate(199,205)"/>
<path d="M0 0 C0.99 0.66 1.98 1.32 3 2 C2.34 2.66 1.68 3.32 1 4 C1.33 4.99 1.66 5.98 2 7 C1.01 7.495 1.01 7.495 0 8 C0 7.34 0 6.68 0 6 C-0.99 6.33 -1.98 6.66 -3 7 C-2.25 2.25 -2.25 2.25 0 0 Z " fill="#313D4D" transform="translate(188,155)"/>
<path d="M0 0 C1.32 1.32 2.64 2.64 4 4 C2.35 5.32 0.7 6.64 -1 8 C-1.04241723 5.66705225 -1.04092937 3.33297433 -1 1 C-0.67 0.67 -0.34 0.34 0 0 Z " fill="#F2F8FB" transform="translate(71,54)"/>
<path d="M0 0 C-1.00617682 2.67576692 -1.54214546 3.7785108 -4.1640625 5.046875 C-4.97617188 5.27890625 -5.78828125 5.5109375 -6.625 5.75 C-7.85089844 6.11351562 -7.85089844 6.11351562 -9.1015625 6.484375 C-10.04128906 6.73960937 -10.04128906 6.73960937 -11 7 C-4.28080229 0 -4.28080229 0 0 0 Z " fill="#FBE0DD" transform="translate(146,134)"/>
<path d="M0 0 C0.33 0 0.66 0 1 0 C1 2.64 1 5.28 1 8 C0.01 8.495 0.01 8.495 -1 9 C-1 8.34 -1 7.68 -1 7 C-1.66 6.67 -2.32 6.34 -3 6 C-2.01 4.02 -1.02 2.04 0 0 Z " fill="#151F2B" transform="translate(91,38)"/>
<path d="M0 0 C0.66 0.33 1.32 0.66 2 1 C-1.5 5.875 -1.5 5.875 -6 7 C-4.02 4.69 -2.04 2.38 0 0 Z " fill="#394249" transform="translate(66,40)"/>
<path d="M0 0 C3.77545388 1.09068668 6.47043472 1.9083091 9 5 C8.01 5.495 8.01 5.495 7 6 C5.83054208 5.19152271 4.66449539 4.37810888 3.5 3.5625 C2.8503125 3.11003906 2.200625 2.65757813 1.53125 2.19140625 C1.0259375 1.79824219 0.520625 1.40507813 0 1 C0 0.67 0 0.34 0 0 Z " fill="#FBE1DB" transform="translate(127,105)"/>
<path d="M0 0 C0.66 0.33 1.32 0.66 2 1 C2 1.99 2 2.98 2 4 C1.34 4 0.68 4 0 4 C-0.33 4.66 -0.66 5.32 -1 6 C-1.99 5.01 -2.98 4.02 -4 3 C-2.68 2.01 -1.36 1.02 0 0 Z " fill="#2C323E" transform="translate(78,55)"/>
</svg>
